<?xml version="1.0" encoding="utf-8"?>
<!-- Generator: Adobe Illustrator 20.1.0, SVG Export Plug-In . SVG Version: 6.00 Build 0)  -->
<svg version="1.1" id="Layer_1" xmlns="http://www.w3.org/2000/svg" xmlns:xlink="http://www.w3.org/1999/xlink" x="0px" y="0px"
	 viewBox="0 0 103 90" style="enable-background:new 0 0 103 90;" xml:space="preserve">
<style type="text/css">
	.st0{clip-path:url(#SVGID_2_);fill:#FFC107;}
	.st1{clip-path:url(#SVGID_2_);fill:#FFE082;}
	.st2{clip-path:url(#SVGID_2_);fill:#455A64;}
	.st3{clip-path:url(#SVGID_2_);fill:#FFCA28;}
</style>
<g>
	<defs>
		<rect id="SVGID_1_" width="103" height="90"/>
	</defs>
	<clipPath id="SVGID_2_">
		<use xlink:href="#SVGID_1_"  style="overflow:visible;"/>
	</clipPath>
	<path class="st0" d="M79.4,25.7c8.3,0,15,6.7,15,15c0,8.3-6.7,15-15,15c-8.3,0-15-6.7-15-15C64.4,32.5,71.1,25.7,79.4,25.7"/>
	<path class="st0" d="M53.6,0c8.3,0,15,6.7,15,15s-6.7,15-15,15c-8.3,0-15-6.7-15-15S45.4,0,53.6,0"/>
	<path class="st1" d="M102.8,69.9c-2.9-5.9-9.6-9-16-7.4L72.9,66c-0.6-5.4-3.8-8.5-10.2-10.1l-38.6-8.6c-1.1-0.3-2.3,0.4-2.5,1.6
		l-6.4,25.7c-0.3,1.1,0.3,2.2,1.4,2.6l32.1,10.7c2.8,1.3,5.8,2,8.9,2.1c4.4,0,9.4-1.9,20.7-6.5l23.6-10.7
		C102.8,72.3,103.3,71.1,102.8,69.9C102.8,70,102.8,69.9,102.8,69.9"/>
	<path class="st2" d="M25.8,45.3c0.1-0.7-0.2-1.3-0.7-1.7c-3.7-3.5-18.4-4.6-22.8-4.9c-0.6,0-1.2,0.2-1.6,0.6
		c-0.4,0.4-0.7,1-0.7,1.6v38.6c0,1.2,1,2.1,2.1,2.1H15c0.9,0,1.8-0.6,2-1.5C20.9,68.8,23.8,57.1,25.8,45.3"/>
	<path class="st3" d="M61.9,72.7c-1,0-2-0.1-2.9-0.3l-16.5-3.3c-1.2-0.2-1.9-1.4-1.7-2.5c0.2-1.2,1.4-1.9,2.5-1.7l16.5,3.3
		c1.6,0.3,3.2,0.3,4.7-0.1l8.4-2.1c0.6,2.3-0.8,4.6-3.1,5.2l-4.2,1.1C64.4,72.5,63.1,72.7,61.9,72.7"/>
	<path class="st1" d="M79.4,47.2c-1.2,0-2.1-1-2.1-2.1v-8.6c0-1.2,1-2.1,2.1-2.1c1.2,0,2.1,1,2.1,2.1v8.6
		C81.5,46.2,80.6,47.2,79.4,47.2"/>
	<path class="st1" d="M53.6,21.5c-1.2,0-2.1-1-2.1-2.1v-8.6c0-1.2,1-2.1,2.1-2.1c1.2,0,2.1,1,2.1,2.1v8.6
		C55.8,20.5,54.8,21.5,53.6,21.5"/>
</g>
</svg>
