<?xml version="1.0" encoding="utf-8"?>
<!-- Generator: Adobe Illustrator 20.1.0, SVG Export Plug-In . SVG Version: 6.00 Build 0)  -->
<svg version="1.1" id="Layer_1" xmlns="http://www.w3.org/2000/svg" xmlns:xlink="http://www.w3.org/1999/xlink" x="0px" y="0px"
	 viewBox="0 0 98 98" style="enable-background:new 0 0 98 98;" xml:space="preserve">
<style type="text/css">
	.st0{clip-path:url(#SVGID_2_);fill:#77DD00;}
	.st1{clip-path:url(#SVGID_2_);fill:#FFD400;}
	.st2{clip-path:url(#SVGID_2_);fill:#66BB00;}
	.st3{clip-path:url(#SVGID_2_);fill:#FF9F00;}
</style>
<g>
	<defs>
		<rect id="SVGID_1_" width="98" height="98"/>
	</defs>
	<clipPath id="SVGID_2_">
		<use xlink:href="#SVGID_1_"  style="overflow:visible;"/>
	</clipPath>
	<path class="st0" d="M45.9,52.1V11.9h-2.9C19.3,11.9,0,31.2,0,54.9c0,11.9,4.8,22.6,12.6,30.4C20.4,93.2,31.2,98,43.1,98
		c23.8,0,43.1-19.3,43.1-43.1v-2.9H45.9z"/>
	<path class="st1" d="M85.4,12.6C77.6,4.8,66.8,0,54.9,0h-2.9v45.9H98v-2.9C98,31.2,93.2,20.4,85.4,12.6"/>
	<path class="st2" d="M45.9,52.1h40.2v2.9C86.1,78.7,66.8,98,43.1,98c-11.9,0-22.6-4.8-30.4-12.6L45.9,52.1z"/>
	<path class="st3" d="M98,43.1v2.9H52.1l33.3-33.3C93.2,20.4,98,31.2,98,43.1"/>
</g>
</svg>
