<?xml version="1.0" encoding="utf-8"?>
<!-- Generator: Adobe Illustrator 20.1.0, SVG Export Plug-In . SVG Version: 6.00 Build 0)  -->
<svg version="1.1" id="Layer_1" xmlns="http://www.w3.org/2000/svg" xmlns:xlink="http://www.w3.org/1999/xlink" x="0px" y="0px"
	 viewBox="0 0 464 464" style="enable-background:new 0 0 464 464;" xml:space="preserve">
<style type="text/css">
	.st0{fill:#DBDBDB;}
	.st1{clip-path:url(#SVGID_2_);fill:#FDB62F;}
	.st2{clip-path:url(#SVGID_2_);fill:#FFA12E;}
	.st3{clip-path:url(#SVGID_2_);fill:#4398D1;}
	.st4{clip-path:url(#SVGID_2_);fill:#87CED9;}
</style>
<rect x="221.6" y="38.4" transform="matrix(0.9967 -8.081587e-02 8.081587e-02 0.9967 -7.5865 18.8926)" class="st0" width="16" height="129.6"/>
<rect x="117.4" y="68.9" transform="matrix(0.6143 -0.7891 0.7891 0.6143 -65.0728 154.365)" class="st0" width="16" height="149.6"/>
<rect x="58.3" y="42.4" transform="matrix(0.9427 -0.3336 0.3336 0.9427 -9.1167 47.6909)" class="st0" width="152" height="16"/>
<rect x="320.5" y="-27.5" transform="matrix(0.4258 -0.9048 0.9048 0.4258 122.6528 339.0735)" class="st0" width="16" height="200.8"/>
<rect x="229.4" y="-62.2" transform="matrix(9.049619e-02 -0.9959 0.9959 9.049619e-02 112.1931 331.1863)" class="st0" width="16" height="332.8"/>
<rect x="429.6" y="137.6" transform="matrix(0.9954 -9.612413e-02 9.612413e-02 0.9954 -15.8511 42.9228)" class="st0" width="16" height="96.8"/>
<rect x="359.2" y="172.4" transform="matrix(8.062826e-02 -0.9967 0.9967 8.062826e-02 101.979 583.3748)" class="st0" width="16" height="128"/>
<rect x="360" y="316.1" transform="matrix(0.2685 -0.9633 0.9633 0.2685 -0.7915 647.058)" class="st0" width="131.2" height="16"/>
<rect x="249.6" y="409.7" transform="matrix(0.966 -0.2584 0.2584 0.966 -96.9522 97.6967)" class="st0" width="147.2" height="16"/>
<rect x="85.6" y="324" transform="matrix(0.8952 -0.4457 0.4457 0.8952 -120.1993 152.8154)" class="st0" width="358.4" height="16"/>
<rect x="47.2" y="299.3" transform="matrix(0.9206 -0.3906 0.3906 0.9206 -135.7822 50.0445)" class="st0" width="16" height="119.2"/>
<rect x="-51.2" y="182.1" transform="matrix(0.1299 -0.9915 0.9915 0.1299 -156.783 201.5503)" class="st0" width="175.2" height="16"/>
<rect x="38.4" y="246.5" transform="matrix(0.9466 -0.3224 0.3224 0.9466 -76.3807 47.8797)" class="st0" width="136" height="16"/>
<rect x="150.3" y="372.8" transform="matrix(7.343629e-02 -0.9973 0.9973 7.343629e-02 -288.5405 562.2849)" class="st0" width="16" height="127.2"/>
<rect x="163.2" y="280.9" transform="matrix(0.5285 -0.8489 0.8489 0.5285 -90.1774 415.3426)" class="st0" width="331.2" height="16"/>
<rect x="124.3" y="249.8" transform="matrix(0.5968 -0.8024 0.8024 0.5968 -239.5587 253.3187)" class="st0" width="16" height="230.4"/>
<rect x="-32.8" y="149.6" transform="matrix(0.6065 -0.7951 0.7951 0.6065 -78.2854 157.1105)" class="st0" width="304.8" height="16"/>
<rect x="328.5" y="257.1" transform="matrix(0.6839 -0.7296 0.7296 0.6839 -136.0651 350.576)" class="st0" width="16" height="150.4"/>
<rect x="52.1" y="332.6" transform="matrix(0.5915 -0.8063 0.8063 0.5915 -217.8987 251.0947)" class="st0" width="173.6" height="16"/>
<polygon class="st0" points="281.6,188.8 400,127.2 407.2,141.6 289.6,203.2 "/>
<g>
	<defs>
		<rect id="SVGID_1_" width="464" height="464"/>
	</defs>
	<clipPath id="SVGID_2_">
		<use xlink:href="#SVGID_1_"  style="overflow:visible;"/>
	</clipPath>
	<path class="st1" d="M232,160c39.8,0,72,32.2,72,72s-32.2,72-72,72s-72-32.2-72-72S192.2,160,232,160"/>
	<path class="st2" d="M180.8,283.2c28,28,73.6,28,101.6,0s28-73.6,0-101.6L180.8,283.2z"/>
	<path class="st3" d="M224,0c13.3,0,24,10.7,24,24c0,13.3-10.7,24-24,24c-13.3,0-24-10.7-24-24C200,10.7,210.7,0,224,0"/>
	<path class="st3" d="M24,264c13.3,0,24,10.7,24,24s-10.7,24-24,24S0,301.3,0,288S10.7,264,24,264"/>
	<path class="st4" d="M232,416c13.3,0,24,10.7,24,24s-10.7,24-24,24c-13.3,0-24-10.7-24-24S218.7,416,232,416"/>
	<path class="st4" d="M424,104c13.3,0,24,10.7,24,24c0,13.3-10.7,24-24,24c-13.3,0-24-10.7-24-24C400,114.7,410.7,104,424,104"/>
	<path class="st4" d="M56,64c13.3,0,24,10.7,24,24c0,13.3-10.7,24-24,24s-24-10.7-24-24C32,74.7,42.7,64,56,64"/>
	<path class="st3" d="M408,376c13.3,0,24,10.7,24,24s-10.7,24-24,24c-13.3,0-24-10.7-24-24S394.7,376,408,376"/>
	<path class="st4" d="M440,224c13.3,0,24,10.7,24,24c0,13.3-10.7,24-24,24c-13.3,0-24-10.7-24-24C416,234.7,426.7,224,440,224"/>
	<path class="st3" d="M88,400c13.3,0,24,10.7,24,24s-10.7,24-24,24s-24-10.7-24-24S74.7,400,88,400"/>
</g>
</svg>
