<?xml version="1.0" encoding="utf-8"?>
<!-- Generator: Adobe Illustrator 20.1.0, SVG Export Plug-In . SVG Version: 6.00 Build 0)  -->
<svg version="1.1" id="Layer_1" xmlns="http://www.w3.org/2000/svg" xmlns:xlink="http://www.w3.org/1999/xlink" x="0px" y="0px"
	 viewBox="56.1 311.1 214.2 124.4" style="enable-background:new 56.1 311.1 214.2 124.4;" xml:space="preserve">
<style type="text/css">
	.st0{fill:#FFD400;}
	.st1{fill:#FF8500;}
	.st2{fill:#DDA300;}
	.st3{fill:#FFC200;}
	.st4{fill:#FFA300;}
	.st5{fill:#3B5998;}
	.st6{fill:#FFFFFF;}
	.st7{fill:#55ACEE;}
	.st8{fill:#6A453B;}
</style>
<path class="st0" d="M212.4,318c0,2.1-1,4.2-2.8,5.5l-4.1,3.1l-6.9,5.2L154.3,365c-1.2,0.9-2.7,1.4-4.1,1.4c-1.5,0-2.9-0.5-4.1-1.4
	l-44.2-33.2l-6.9-5.2l-4.1-3.1c-1.8-1.3-2.8-3.4-2.8-5.5c0,0,0,0,0,0v82.9c0,3.8,3.1,6.9,6.9,6.9h20.7h6.9h6.9h20.7h55.3
	c3.8,0,6.9-3.1,6.9-6.9v-48.4v-6.9v-6.9L212.4,318C212.4,318,212.4,318,212.4,318z"/>
<g>
	<path class="st1" d="M212.3,317.3c0-0.1,0-0.1,0-0.2c0-0.1,0-0.3-0.1-0.4c0-0.1,0-0.2-0.1-0.3c0-0.1-0.1-0.2-0.1-0.3
		c0-0.1,0-0.2-0.1-0.3c0,0,0,0,0,0c0-0.1-0.1-0.2-0.1-0.3c0-0.1-0.1-0.2-0.1-0.3c-0.1-0.1-0.1-0.3-0.2-0.4c0-0.1-0.1-0.1-0.1-0.2
		c-0.1-0.1-0.1-0.2-0.2-0.3c0-0.1-0.1-0.1-0.1-0.2c-0.1-0.1-0.2-0.2-0.2-0.3c0-0.1-0.1-0.1-0.1-0.2c-0.1-0.1-0.2-0.2-0.3-0.4
		c0,0,0-0.1-0.1-0.1c-0.1-0.1-0.3-0.3-0.4-0.4c0,0-0.1-0.1-0.1-0.1c-0.1-0.1-0.2-0.2-0.3-0.3c-0.1,0-0.1-0.1-0.2-0.1
		c-0.1-0.1-0.2-0.1-0.3-0.2c-0.1,0-0.1-0.1-0.2-0.1c-0.1-0.1-0.2-0.1-0.4-0.2c-0.1,0-0.1-0.1-0.2-0.1c-0.2-0.1-0.4-0.1-0.5-0.2
		c-0.1,0-0.2,0-0.2-0.1c-0.1,0-0.2-0.1-0.4-0.1c-0.1,0-0.2,0-0.2,0c-0.1,0-0.3,0-0.4-0.1c-0.1,0-0.1,0-0.2,0c-0.2,0-0.4,0-0.6,0
		h-55.3H94.9c-0.2,0-0.4,0-0.6,0c-0.1,0-0.1,0-0.2,0c-0.1,0-0.3,0-0.4,0.1c-0.1,0-0.2,0-0.2,0c-0.1,0-0.3,0.1-0.4,0.1
		c-0.1,0-0.2,0-0.2,0.1c-0.2,0.1-0.4,0.1-0.5,0.2c-0.1,0-0.1,0.1-0.2,0.1c-0.1,0.1-0.2,0.1-0.4,0.2c-0.1,0-0.1,0.1-0.2,0.1
		c-0.1,0.1-0.2,0.1-0.3,0.2c-0.1,0-0.1,0.1-0.2,0.1c-0.1,0.1-0.2,0.2-0.3,0.3c0,0-0.1,0.1-0.1,0.1c-0.2,0.1-0.3,0.3-0.4,0.4
		c0,0,0,0.1-0.1,0.1c-0.1,0.1-0.2,0.2-0.3,0.4c0,0.1-0.1,0.1-0.1,0.2c-0.1,0.1-0.2,0.2-0.2,0.3c0,0.1-0.1,0.1-0.1,0.2
		c-0.1,0.1-0.1,0.2-0.2,0.3c0,0.1-0.1,0.1-0.1,0.2c-0.1,0.1-0.1,0.3-0.2,0.4c0,0.1-0.1,0.2-0.1,0.3c0,0.1-0.1,0.2-0.1,0.3
		c0,0,0,0,0,0c0,0.1-0.1,0.2-0.1,0.3c0,0.1-0.1,0.2-0.1,0.3c0,0.1,0,0.2-0.1,0.3c0,0.1,0,0.3-0.1,0.4c0,0.1,0,0.1,0,0.2
		c0,0.2,0,0.4,0,0.6c0,2.1,1,4.2,2.8,5.5l4.1,3.1l6.9,5.2L146,365c1.2,0.9,2.7,1.4,4.1,1.4c1.5,0,2.9-0.5,4.1-1.4l44.2-33.2l6.9-5.2
		l4.1-3.1c1.8-1.3,2.8-3.4,2.8-5.5C212.4,317.8,212.4,317.6,212.3,317.3z"/>
	<path class="st2" d="M233.1,338.7h-20.7v6.9v6.9v48.4c0,3.8-3.1,6.9-6.9,6.9h-76h-6.9h-6.9v20.7c0,3.8,3.1,6.9,6.9,6.9h110.5
		c3.8,0,6.9-3.1,6.9-6.9v-82.9C240,341.8,236.9,338.7,233.1,338.7z"/>
</g>
<path class="st3" d="M146,365l-44.2-33.2l-6.9-5.2l-4.1-3.1c-1.8-1.3-2.8-3.4-2.8-5.5c0,0,0,0,0,0v82.9c0,3.8,3.1,6.9,6.9,6.9h20.7
	h6.9h6.9h20.7v-41.5C148.7,366.4,147.3,365.9,146,365z"/>
<path class="st4" d="M90.8,323.5l4.1,3.1l6.9,5.2L146,365c1.2,0.9,2.7,1.4,4.1,1.4v-55.3H94.9c-0.2,0-0.4,0-0.6,0
	c-0.1,0-0.1,0-0.2,0c-0.1,0-0.3,0-0.4,0.1c-0.1,0-0.2,0-0.2,0c-0.1,0-0.3,0.1-0.4,0.1c-0.1,0-0.2,0-0.2,0.1
	c-0.2,0.1-0.4,0.1-0.5,0.2c-0.1,0-0.1,0.1-0.2,0.1c-0.1,0.1-0.2,0.1-0.4,0.2c-0.1,0-0.1,0.1-0.2,0.1c-0.1,0.1-0.2,0.1-0.3,0.2
	c-0.1,0-0.1,0.1-0.2,0.1c-0.1,0.1-0.2,0.2-0.3,0.3c0,0-0.1,0.1-0.1,0.1c-0.2,0.1-0.3,0.3-0.4,0.4c0,0,0,0.1-0.1,0.1
	c-0.1,0.1-0.2,0.2-0.3,0.4c0,0.1-0.1,0.1-0.1,0.2c-0.1,0.1-0.2,0.2-0.2,0.3c0,0.1-0.1,0.1-0.1,0.2c-0.1,0.1-0.1,0.2-0.2,0.3
	c0,0.1-0.1,0.1-0.1,0.2c-0.1,0.1-0.1,0.3-0.2,0.4c0,0.1-0.1,0.2-0.1,0.3c0,0.1-0.1,0.2-0.1,0.3c0,0,0,0,0,0c0,0.1-0.1,0.2-0.1,0.3
	c0,0.1-0.1,0.2-0.1,0.3c0,0.1,0,0.2-0.1,0.3c0,0.1,0,0.3-0.1,0.4c0,0.1,0,0.1,0,0.2c0,0.2,0,0.4,0,0.6C88,320.1,89,322.2,90.8,323.5
	z"/>
<g>
	<path class="st5" d="M99.9,371.2c0,12.1-9.8,21.9-21.9,21.9c-12.1,0-21.9-9.8-21.9-21.9c0-12.1,9.8-21.9,21.9-21.9
		C90.1,349.3,99.9,359.1,99.9,371.2L99.9,371.2z M99.9,371.2"/>
	<path class="st6" d="M83.5,372h-3.9v14.3h-5.9V372h-2.8v-5h2.8v-3.3c0-2.3,1.1-6,6-6l4.4,0v4.9h-3.2c-0.5,0-1.3,0.3-1.3,1.4v3H84
		L83.5,372z M83.5,372"/>
</g>
<g>
	<path class="st7" d="M235.5,402.9c0,12.8-10.3,23.1-23.1,23.1c-12.8,0-23.1-10.3-23.1-23.1c0-12.8,10.3-23.1,23.1-23.1
		C225.1,379.8,235.5,390.2,235.5,402.9L235.5,402.9z M235.5,402.9"/>
	<path class="st6" d="M226.5,396.4c-1,0.4-2.1,0.7-3.2,0.9c1.1-0.7,2-1.8,2.4-3.1c-1.1,0.6-2.3,1.1-3.5,1.3c-1-1.1-2.4-1.7-4-1.7
		c-3.1,0-5.5,2.5-5.5,5.5c0,0.4,0,0.9,0.1,1.3c-4.6-0.2-8.7-2.4-11.4-5.8c-0.5,0.8-0.7,1.8-0.7,2.8c0,1.9,1,3.6,2.5,4.6
		c-0.9,0-1.8-0.3-2.5-0.7c0,0,0,0,0,0.1c0,2.7,1.9,4.9,4.4,5.4c-0.5,0.1-1,0.2-1.5,0.2c-0.4,0-0.7,0-1-0.1c0.7,2.2,2.7,3.8,5.2,3.8
		c-1.9,1.5-4.3,2.4-6.9,2.4c-0.4,0-0.9,0-1.3-0.1c2.4,1.6,5.3,2.5,8.5,2.5c10.2,0,15.7-8.4,15.7-15.7c0-0.2,0-0.5,0-0.7
		C224.8,398.5,225.8,397.5,226.5,396.4L226.5,396.4z M226.5,396.4"/>
</g>
<g>
	<path class="st8" d="M258.1,354.7h-10.4c-1.7,0-3,1.3-3,3v10.4c0,1.7,1.3,3,3,3h10.4c1.7,0,3-1.3,3-3v-10.4
		C261.1,356.1,259.8,354.7,258.1,354.7L258.1,354.7z M252.9,368.4c-3,0-5.4-2.4-5.4-5.4c0-3,2.4-5.4,5.4-5.4c3,0,5.4,2.4,5.4,5.4
		C258.3,365.9,255.9,368.4,252.9,368.4L252.9,368.4z M258.5,358.7c-0.7,0-1.3-0.6-1.3-1.3c0-0.7,0.6-1.3,1.3-1.3
		c0.7,0,1.3,0.6,1.3,1.3C259.8,358.1,259.2,358.7,258.5,358.7L258.5,358.7z M258.5,358.7"/>
	<path class="st8" d="M252.9,359.8c-1.7,0-3.1,1.4-3.1,3.1c0,1.7,1.4,3.1,3.1,3.1c1.7,0,3.1-1.4,3.1-3.1
		C256,361.2,254.6,359.8,252.9,359.8L252.9,359.8z M252.9,359.8"/>
	<path class="st8" d="M252.9,345.5c-9.6,0-17.4,7.8-17.4,17.4s7.8,17.4,17.4,17.4s17.4-7.8,17.4-17.4S262.5,345.5,252.9,345.5
		L252.9,345.5z M263.4,368.1c0,2.9-2.4,5.3-5.3,5.3h-10.4c-2.9,0-5.3-2.4-5.3-5.3v-10.4c0-2.9,2.4-5.3,5.3-5.3h10.4
		c2.9,0,5.3,2.4,5.3,5.3V368.1z M263.4,368.1"/>
</g>
</svg>
