<?xml version="1.0" encoding="utf-8"?>
<!-- Generator: Adobe Illustrator 20.1.0, SVG Export Plug-In . SVG Version: 6.00 Build 0)  -->
<svg version="1.1" id="Layer_1" xmlns="http://www.w3.org/2000/svg" xmlns:xlink="http://www.w3.org/1999/xlink" x="0px" y="0px"
	 viewBox="0 0 267.7 254" style="enable-background:new 0 0 267.7 254;" xml:space="preserve">
<style type="text/css">
	.st0{clip-path:url(#SVGID_2_);fill:#464F5D;}
	.st1{clip-path:url(#SVGID_2_);fill:#90BAE1;}
	.st2{clip-path:url(#SVGID_2_);fill:#B0D3F0;}
	.st3{clip-path:url(#SVGID_2_);fill:#FFD15C;}
	.st4{clip-path:url(#SVGID_2_);fill:#F8B64C;}
	.st5{clip-path:url(#SVGID_2_);fill:#FFFFFF;}
</style>
<g>
	<defs>
		<rect id="SVGID_1_" width="267.7" height="254"/>
	</defs>
	<clipPath id="SVGID_2_">
		<use xlink:href="#SVGID_1_"  style="overflow:visible;"/>
	</clipPath>
	<path class="st0" d="M247.3,194.5l-117.3,57c-2.3,1.1-5,1.1-7.3,0l-117.3-57c-4.4-1.9-6.5-7-4.6-11.4c0.9-2.1,2.6-3.8,4.8-4.7
		l46.2-20.9l70.9-14.9c2.3,1.1,5,1.1,7.3,0l70.9,14.9l46.2,20.9c4.5,1.8,6.7,6.8,4.9,11.3C251.1,191.8,249.4,193.6,247.3,194.5"/>
	<path class="st1" d="M247.3,134.9l-46.4,22.7l-70.9,34.5c-2.3,1.1-5,1.1-7.3,0l-70.9-34.5L5.3,134.9c-4.4-2-6.2-7.2-4.2-11.5
		c0.9-1.9,2.5-3.5,4.4-4.3l52.4-23.8l63.2-21.2l1.5,0.7c2.3,1.1,5,1.1,7.3,0l1.5-0.7l63.2,21.4l52.4,23.8c4.4,2,6.2,7.2,4.2,11.6
		C250.4,132.6,249,134.1,247.3,134.9"/>
	<path class="st2" d="M247.3,69.7l-52.6,25.8l-63.2,30.7l-1.5,0.7c-2.3,1.1-5,1.1-7.3,0l-1.5-0.7L57.9,95.5L5.3,69.7
		c-4.4-2-6.2-7.2-4.2-11.5c0.9-1.9,2.5-3.5,4.4-4.3L122.8,0.7c2.2-0.9,4.7-0.9,6.9,0l117.3,53.2c4.4,1.9,6.4,7,4.5,11.4
		C250.7,67.3,249.2,68.8,247.3,69.7"/>
	<path class="st3" d="M267.7,161.4V193c0,28.8-19.6,53.9-47.5,61c-27.9-7-47.4-32.2-47.4-61v-31.6c22-2.5,34.4-10.8,47.5-20.6
		C233.3,150.6,245.8,159,267.7,161.4"/>
	<path class="st4" d="M220.3,241.5c-21-6.7-35.5-26.2-35.5-48.5v-21.4c14.8-3.2,25.6-9.2,35.5-16c10.1,7,20.7,12.8,35.5,16v21.4
		C255.7,215.3,241.3,234.8,220.3,241.5"/>
	<polygon class="st5" points="212.4,216.8 200.7,205.1 206.6,199.1 212.4,204.9 233.9,183.4 239.8,189.3 	"/>
</g>
</svg>
