<?xml version="1.0" encoding="utf-8"?>
<!-- Generator: Adobe Illustrator 20.1.0, SVG Export Plug-In . SVG Version: 6.00 Build 0)  -->
<svg version="1.1" id="Layer_1" xmlns="http://www.w3.org/2000/svg" xmlns:xlink="http://www.w3.org/1999/xlink" x="0px" y="0px"
	 viewBox="-49 141 210.5 214.7" style="enable-background:new -49 141 210.5 214.7;" xml:space="preserve">
<style type="text/css">
	.st0{fill:#509FE8;}
	.st1{fill:#343434;}
	.st2{fill:#8C8C8C;}
	.st3{fill:#3C3C3B;}
	.st4{fill:#141414;}
	.st5{fill:#393939;}
	.st6{fill:#F7931A;}
	.st7{fill:#FFFFFF;}
</style>
<rect x="-49" y="299.2" class="st0" width="20" height="53"/>
<rect x="141.5" y="299.2" class="st0" width="20" height="53"/>
<rect x="46.2" y="240.4" transform="matrix(-1.836970e-16 1 -1 -1.836970e-16 401.9301 289.4301)" class="st0" width="20" height="210.5"/>
<g>
	<polygon class="st1" points="91.4,202.6 90.6,205.2 90.6,281.6 91.4,282.4 126.9,261.4 	"/>
	<polygon class="st2" points="91.4,202.6 55.9,261.4 91.4,282.4 91.4,245.3 	"/>
	<polygon class="st3" points="91.4,289.1 90.9,289.7 90.9,316.9 91.4,318.2 126.9,268.2 	"/>
	<polygon class="st2" points="91.4,318.2 91.4,289.1 55.9,268.2 	"/>
	<polygon class="st4" points="91.4,282.4 126.9,261.4 91.4,245.3 	"/>
	<polygon class="st5" points="55.9,261.4 91.4,282.4 91.4,245.3 	"/>
</g>
<g>
	<path class="st6" d="M70.5,202.2c-6.5,26.2-33.1,42.2-59.4,35.7c-26.2-6.5-42.2-33.1-35.7-59.4c6.5-26.3,33.1-42.2,59.4-35.7
		C61.1,149.3,77.1,175.9,70.5,202.2L70.5,202.2z"/>
	<path class="st7" d="M44.6,183.3c1-6.5-4-10-10.8-12.4l2.2-8.8l-5.4-1.3l-2.1,8.6c-1.4-0.4-2.9-0.7-4.3-1l2.2-8.7l-5.4-1.3
		l-2.2,8.8c-1.2-0.3-2.3-0.5-3.4-0.8l0,0l-7.4-1.9l-1.4,5.7c0,0,4,0.9,3.9,1c2.2,0.5,2.6,2,2.5,3.1l-2.5,10.1c0.2,0,0.3,0.1,0.6,0.2
		l-0.6-0.1l-3.5,14.1c-0.3,0.7-0.9,1.7-2.5,1.3c0.1,0.1-3.9-1-3.9-1l-2.7,6.2l7,1.7c1.3,0.3,2.6,0.7,3.8,1l-2.2,8.9l5.4,1.3l2.2-8.8
		c1.5,0.4,2.9,0.8,4.3,1.1l-2.2,8.8l5.4,1.3l2.2-8.9c9.2,1.7,16.1,1,19-7.3c2.3-6.7-0.1-10.5-4.9-13
		C41.2,190.4,43.9,188.1,44.6,183.3L44.6,183.3z M32.3,200.6c-1.7,6.7-12.9,3.1-16.5,2.2l3-11.8C22.4,191.8,34,193.6,32.3,200.6
		L32.3,200.6z M34,183.2c-1.5,6.1-10.9,3-13.9,2.2l2.7-10.7C25.8,175.5,35.5,176.9,34,183.2z"/>
</g>
</svg>
