<?xml version="1.0" encoding="utf-8"?>
<!-- Generator: Adobe Illustrator 20.1.0, SVG Export Plug-In . SVG Version: 6.00 Build 0)  -->
<svg version="1.1" id="Layer_1" xmlns="http://www.w3.org/2000/svg" xmlns:xlink="http://www.w3.org/1999/xlink" x="0px" y="0px"
	 viewBox="0 0 128 128" style="enable-background:new 0 0 128 128;" xml:space="preserve">
<style type="text/css">
	.st0{clip-path:url(#SVGID_2_);fill:#77DD00;}
	.st1{clip-path:url(#SVGID_2_);fill:#66BB00;}
	.st2{clip-path:url(#SVGID_2_);fill:#E7E7E7;}
	.st3{clip-path:url(#SVGID_2_);fill:#D3D3D8;}
</style>
<g>
	<defs>
		<rect id="SVGID_1_" width="128" height="128"/>
	</defs>
	<clipPath id="SVGID_2_">
		<use xlink:href="#SVGID_1_"  style="overflow:visible;"/>
	</clipPath>
	<path class="st0" d="M64,0C28.8,0,0,28.8,0,64s28.8,64,64,64s64-28.8,64-64S99.2,0,64,0"/>
	<path class="st1" d="M128,64c0,35.2-28.8,64-64,64V0C99.2,0,128,28.8,128,64"/>
	<polygon class="st2" points="100.5,53.1 56.5,97.1 24.9,65.6 35.6,54.9 56.5,75.9 64,68.4 89.9,42.6 	"/>
	<polygon class="st3" points="100.5,53.1 64,89.6 64,68.4 89.9,42.6 	"/>
</g>
</svg>
