<?xml version="1.0" encoding="utf-8"?>
<!-- Generator: Adobe Illustrator 20.1.0, SVG Export Plug-In . SVG Version: 6.00 Build 0)  -->
<svg version="1.1" id="Layer_1" xmlns="http://www.w3.org/2000/svg" xmlns:xlink="http://www.w3.org/1999/xlink" x="0px" y="0px"
	 viewBox="0 0 322.8 207" style="enable-background:new 0 0 322.8 207;" xml:space="preserve">
<style type="text/css">
	.st0{clip-path:url(#SVGID_2_);fill:#CCCCCC;}
	.st1{clip-path:url(#SVGID_2_);fill:#FC7A51;}
	.st2{clip-path:url(#SVGID_2_);fill:#29ABE2;}
	.st3{fill:#FC7A51;}
	.st4{fill:#FFFFFF;}
</style>
<g>
	<g>
		<defs>
			<rect id="SVGID_1_" y="-0.1" width="322.8" height="207.8"/>
		</defs>
		<clipPath id="SVGID_2_">
			<use xlink:href="#SVGID_1_"  style="overflow:visible;"/>
		</clipPath>
		<path class="st0" d="M304,125.2H18.9C8.5,125.2,0,133.7,0,144.1v43.7c0,10.5,8.5,18.9,18.9,18.9H304c10.5,0,18.9-8.5,18.9-18.9
			v-43.7C322.9,133.7,314.5,125.2,304,125.2L304,125.2z M304,125.2"/>
		<path class="st0" d="M304,10.8H18.9C8.5,10.8,0,19.3,0,29.7v43.7c0,10.5,8.5,18.9,18.9,18.9H304c10.5,0,18.9-8.5,18.9-18.9V29.7
			C322.9,19.3,314.5,10.8,304,10.8L304,10.8z M304,10.8"/>
		<path class="st1" d="M81.3,114.4V196H18.9C8.5,196,0,187.5,0,177.1v-43.7c0-10.5,8.5-18.9,18.9-18.9H81.3z M81.3,114.4"/>
		<path class="st2" d="M322.9,133.3v43.7c0,10.5-8.5,18.9-18.9,18.9H81.3v-81.6H304C314.5,114.4,322.9,122.9,322.9,133.3
			L322.9,133.3z M322.9,133.3"/>
		<path class="st2" d="M322.9,18.9v43.7c0,10.5-8.5,18.9-18.9,18.9H81.3V0H304C314.5,0,322.9,8.5,322.9,18.9L322.9,18.9z
			 M322.9,18.9"/>
	</g>
	<path class="st3" d="M81.3,0v81.6H18.9C8.5,81.6,0,73.1,0,62.7V18.9C0,8.5,8.5,0,18.9,0H81.3z M81.3,0"/>
	<path class="st4" d="M56.7,66H26v-4.9c0-8.5,6.9-15.4,15.4-15.4c8.5,0,15.4,6.9,15.4,15.4V66z M56.7,66"/>
	<path class="st4" d="M41.3,48.3C32.9,48.3,26,41.4,26,33c0-8.5,6.9-15.4,15.4-15.4c8.5,0,15.4,6.9,15.4,15.4
		C56.7,41.4,49.8,48.3,41.3,48.3L41.3,48.3z M41.3,48.3"/>
	<path class="st4" d="M124.5,166.3c-6.1,0-11.1-5-11.1-11.1c0-6.1,5-11.1,11.1-11.1c6.1,0,11.1,5,11.1,11.1
		C135.6,161.3,130.6,166.3,124.5,166.3L124.5,166.3z M124.5,166.3"/>
	<path class="st4" d="M37.7,152.9h-9.2v-11c0-7.9,6.4-14.4,14.4-14.4c7.9,0,14.4,6.4,14.4,14.4h-9.2c0-2.9-2.3-5.2-5.2-5.2
		c-2.9,0-5.2,2.3-5.2,5.2L37.7,152.9L37.7,152.9z M37.7,152.9"/>
	<rect x="28.6" y="152.9" class="st4" width="28.7" height="25.4"/>
	<path class="st4" d="M226.9,166.3c-6.1,0-11.1-5-11.1-11.1c0-6.1,5-11.1,11.1-11.1c6.1,0,11.1,5,11.1,11.1
		C238,161.3,233,166.3,226.9,166.3L226.9,166.3z M226.9,166.3"/>
	<path class="st4" d="M278.1,51.9c-6.1,0-11.1-5-11.1-11.1c0-6.1,5-11.1,11.1-11.1c6.1,0,11.1,5,11.1,11.1
		C289.2,46.9,284.2,51.9,278.1,51.9L278.1,51.9z M278.1,51.9"/>
	<path class="st4" d="M175.7,166.3c-6.1,0-11.1-5-11.1-11.1c0-6.1,5-11.1,11.1-11.1c6.1,0,11.1,5,11.1,11.1
		C186.8,161.3,181.8,166.3,175.7,166.3L175.7,166.3z M175.7,166.3"/>
	<path class="st4" d="M124.5,51.9c-6.1,0-11.1-5-11.1-11.1c0-6.1,5-11.1,11.1-11.1c6.1,0,11.1,5,11.1,11.1
		C135.6,46.9,130.6,51.9,124.5,51.9L124.5,51.9z M124.5,51.9"/>
	<path class="st4" d="M226.9,51.9c-6.1,0-11.1-5-11.1-11.1c0-6.1,5-11.1,11.1-11.1c6.1,0,11.1,5,11.1,11.1
		C238,46.9,233,51.9,226.9,51.9L226.9,51.9z M226.9,51.9"/>
	<path class="st4" d="M175.7,51.9c-6.1,0-11.1-5-11.1-11.1c0-6.1,5-11.1,11.1-11.1c6.1,0,11.1,5,11.1,11.1
		C186.8,46.9,181.8,51.9,175.7,51.9L175.7,51.9z M175.7,51.9"/>
	<g>
		<defs>
			<rect id="SVGID_3_" width="322.8" height="207"/>
		</defs>
		<clipPath id="SVGID_4_">
			<use xlink:href="#SVGID_3_"  style="overflow:visible;"/>
		</clipPath>
	</g>
</g>
</svg>
