<?xml version="1.0" encoding="UTF-8"?>
<!DOCTYPE svg PUBLIC "-//W3C//DTD SVG 1.1//EN" "http://www.w3.org/Graphics/SVG/1.1/DTD/svg11.dtd">
<!-- Creator: CorelDRAW -->
<svg xmlns="http://www.w3.org/2000/svg" xml:space="preserve" width="1720px" height="508px" style="shape-rendering:geometricPrecision; text-rendering:geometricPrecision; image-rendering:optimizeQuality; fill-rule:evenodd; clip-rule:evenodd"
viewBox="0 0 1718.81 508.203"
 xmlns:xlink="http://www.w3.org/1999/xlink">
 <defs>
  <style type="text/css">
   <![CDATA[
    .fil4 {fill:none}
    .fil1 {fill:#A2810D}
    .fil0 {fill:#E2B20C}
    .fil2 {fill:#FFC80A}
    .fil5 {fill:white}
    .fil3 {fill:#252525;fill-rule:nonzero}
   ]]>
  </style>
 </defs>
 <g id="Layer_x0020_1">
  <metadata id="CorelCorpID_0Corel-Layer"/>
  <path class="fil0" d="M-0 233.28l115.653 73.4018 -47.6332 122.999c114.923,-61.9661 233.607,-106.064 356.859,-128.465l-99.952 -192.095c-112.631,28.4189 -220.627,70.7516 -324.927,124.159z"/>
  <polygon class="fil1" points="196.257,321.593 424.879,301.216 418.241,237.572 "/>
  <path class="fil0" d="M1718.81 227.377l-115.653 73.4018 47.6332 122.999c-114.923,-61.9661 -233.607,-106.064 -356.859,-128.465l99.952 -192.095c112.631,28.4189 220.627,70.7516 324.927,124.159z"/>
  <polygon class="fil1" points="1522.56,315.69 1293.93,295.313 1300.57,231.67 "/>
  <path class="fil2" d="M132.648 129.32l63.6093 192.273c404.138,-142.342 842.532,-157.14 1325.67,-5.78224l66.5005 -187.936c-477.374,-169.447 -962.49,-172.032 -1455.78,1.44497z"/>
  <path class="fil3" d="M407.898 238.024m117.542 -74.7654l0.329368 0.560752c3.38812,16.1083 0.950327,29.6715 -7.37005,40.7755 -8.35698,11.1112 -21.3912,18.3879 -39.1771,21.8457 -18.1412,3.52624 -33.9096,0.524156 -47.3015,-8.97085 -13.4262,-9.48674 -21.9236,-23.4985 -25.5113,-41.9572l-5.833 -30.0103c-3.57465,-18.3879 -1.08727,-34.5352 7.50936,-48.377 8.59898,-13.8417 21.7052,-22.4572 39.3494,-25.8867 18.4245,-3.58173 33.6841,-1.87822 45.814,5.10343 12.13,6.98284 19.6204,18.6524 22.547,35.0334l-0.0885398 0.679986 -29.4778 5.7303c-1.88767,-9.70868 -5.63113,-16.4814 -11.2233,-20.2851 -5.60044,-3.8379 -13.2892,-4.80712 -23.0333,-2.91237 -9.07002,1.76253 -15.4461,6.78923 -19.0951,15.073 -3.68207,8.28969 -4.3656,18.2038 -2.12023,29.7541l5.87432 30.2216c2.25835,11.6211 6.76208,20.6003 13.5726,26.8878 6.77625,6.29341 14.9254,8.49628 24.4925,6.63694 9.07002,-1.76371 15.3752,-5.45169 18.9227,-11.0321 3.54277,-5.6146 4.35616,-13.3471 2.44842,-23.162l29.3716 -5.70905zm18.0609 48.7772m130.015 -79.5654c2.30912,18.807 -1.69642,35.0452 -12.019,48.7134 -10.3214,13.667 -24.9741,21.6852 -43.9252,24.012 -18.9156,2.32328 -34.965,-1.92545 -48.2554,-12.7308 -13.255,-10.8089 -21.0347,-25.5998 -23.3355,-44.336l-3.3775 -27.5134c-2.29141,-18.6642 1.68344,-34.8611 11.8891,-48.5883 10.2057,-13.726 24.7144,-21.7253 43.558,-24.0391 18.9522,-2.32683 35.1444,1.90302 48.547,12.7308 13.4014,10.8266 21.2484,25.5738 23.541,44.238l3.3775 27.5134zm-33.958 -23.9412c-1.46386,-11.9293 -5.63467,-21.3086 -12.5183,-28.2088 -6.88367,-6.9002 -15.5535,-9.68979 -26.0508,-8.40066 -10.3533,1.27025 -17.9476,6.05848 -22.8138,14.4013 -4.83073,8.33809 -6.5,18.434 -5.03496,30.3632l3.39993 27.6929c1.48629,12.1087 5.59808,21.6049 12.3377,28.5216 6.74083,6.91791 15.3386,9.71695 25.7639,8.43725 10.4973,-1.28914 18.1979,-6.08918 23.1372,-14.4414 4.93816,-8.35107 6.66646,-18.5638 5.18017,-30.6725l-3.40111 -27.6929zm52.9362 86.1823m138.298 -9.67091l-30.8213 2.15565 -69.1366 -99.2602 -0.641028 0.152288 7.23547 103.481 -30.7835 2.15329 -10.7416 -153.6 30.7847 -2.15329 69.1661 99.1504 0.604432 -0.151108 -7.22957 -103.372 30.8225 -2.15565 10.7405 153.6zm11.4181 1.00817m123.743 -128.013l-43.9913 -0.768525 -2.27134 130.135 -30.8543 -0.539502 2.27134 -130.133 -43.342 -0.75672 0.415547 -23.8184 118.189 2.06357 -0.416727 23.8184zm0.491101 128.013m107.654 -58.5154l-56.8827 -4.97594 -3.83436 43.8296 67.6338 5.91682 -2.06357 23.5882 -98.376 -8.60725 13.4203 -153.389 98.1599 8.58718 -2.07537 23.731 -67.4189 -5.89793 -3.37278 38.5443 56.8827 4.97712 -2.07301 23.6956zm12.7899 69.3432m98.6133 -28.3658c0.721304,-5.8755 -0.740193,-10.855 -4.38567,-14.9384 -3.64784,-4.04804 -10.4347,-8.30031 -20.3287,-12.7143 -16.976,-7.46686 -29.6042,-15.3811 -37.8561,-23.7039 -8.24601,-8.35816 -11.5904,-18.7315 -10.0593,-31.1991 1.53469,-12.503 7.91546,-22.1208 19.2108,-28.8061 11.2528,-6.65465 24.8525,-9.02161 40.7956,-7.06429 16.9442,2.08009 30.0339,8.0158 39.3046,17.8083 9.26598,9.8291 12.9091,21.6214 10.8491,35.4431l-0.290411 0.582002 -29.6986 -3.64666c0.937341,-7.63095 -0.674083,-13.7555 -4.79413,-18.4068 -4.07873,-4.68316 -10.3131,-7.52234 -18.6606,-8.54704 -7.55776,-0.927897 -13.6221,0.182982 -18.1908,3.33028 -4.56393,3.11306 -7.21422,7.51526 -7.90837,13.1759 -0.638667,5.19433 1.10025,9.69806 5.16836,13.5796 4.06929,3.88158 11.3768,8.34281 21.8811,13.4144 16.2205,6.79159 28.2442,14.5961 36.1526,23.3485 7.8706,8.74891 11.0415,19.3572 9.50209,31.8956 -1.60552,13.0756 -7.99455,22.7642 -19.134,29.0694 -11.1371,6.30521 -25.1099,8.44434 -41.9112,6.38195 -16.4424,-2.01871 -30.0528,-7.87178 -40.8357,-17.4872 -10.7782,-9.65202 -15.0104,-22.5706 -12.66,-38.7556l0.28923 -0.583182 29.6986 3.64666c-1.10852,9.02752 0.728387,15.9808 5.54377,20.8989 4.77879,4.91455 11.7144,7.94851 20.8139,9.06529 8.20469,1.00817 14.6492,0.0531239 19.3654,-2.82147 4.72212,-2.91237 7.43498,-7.23311 8.13858,-12.9658zm33.0926 45.6913m144.093 -104.581l-43.1897 -8.39475 -24.8348 127.762 -30.2924 -5.88849 24.8348 -127.762 -42.5522 -8.27198 4.54504 -23.3839 116.034 22.5552 -4.54504 23.3839z"/>
  <path class="fil4" d="M146.888 315.93l63.6093 192.273c404.138,-142.342 842.532,-157.14 1325.67,-5.78224l66.5005 -187.936c-477.374,-169.447 -962.49,-172.032 -1455.78,1.44497z"/>
  <polygon class="fil5" points="275.373,143.436 284.972,173.172 316.218,173.112 290.904,191.43 300.617,221.129 275.373,202.714 250.128,221.129 259.842,191.43 234.528,173.112 265.774,173.172 "/>
  <polygon class="fil5" points="1444.62,143.436 1454.22,173.172 1485.47,173.112 1460.15,191.43 1469.86,221.129 1444.62,202.714 1419.38,221.129 1429.09,191.43 1403.77,173.112 1435.02,173.172 "/>
 </g>
</svg>
