<svg xmlns="http://www.w3.org/2000/svg" width="16" height="13" viewBox="0 0 16 13">
    <path fill="#637576" fill-rule="evenodd" d="M5.513 8.375h6.594a.99.99 0 0 0 .91-.6l1.978-4.616a.99.99 0 0 0-.91-1.379H3.205a.99.99 0 0 0-.534.165L2.01.43A.495.495 0 0 0 1.56.132H.57a.495.495 0 1 0 0 .989l.673-.224 3.01 6.878c-.642 1.08-.24 1.918.119 2.257.365.343-.398.189-.508 1.31a1.649 1.649 0 1 0 3.159-.66H10.6a1.649 1.649 0 1 0 1.53-.989H5.526a.66.66 0 1 1 0-1.318h-.013zm8.572-5.605l-1.978 4.616H5.183L3.205 2.77h10.88zm-7.913 8.572a.66.66 0 1 1-1.319 0 .66.66 0 0 1 1.32 0zm6.594 0a.66.66 0 1 1-1.318 0 .66.66 0 0 1 1.318 0z"/>
</svg>
