<svg xmlns="http://www.w3.org/2000/svg" width="17" height="12" viewBox="0 0 17 12">
    <g fill="#637576" fill-rule="evenodd">
        <path d="M15.898 5.236h-1.09a.545.545 0 0 0 0 1.091h1.09a.545.545 0 0 0 0-1.09zM15.836 8.418l-1.09-.727a.546.546 0 1 0-.604.909l1.09.727a.546.546 0 0 0 .604-.909zM14.433 3.938a.545.545 0 0 0 .29-.083l1.128-.728a.545.545 0 1 0-.586-.92l-1.127.728a.545.545 0 0 0 .295 1.007v-.004zM12.262.145h-1.455a1.09 1.09 0 0 0-1.09 1.091v.033L3.468 3.782a1.09 1.09 0 0 0-1.025-.727H1.353a1.09 1.09 0 0 0-1.091 1.09v3.637c0 .602.488 1.09 1.09 1.09h1.092a1.09 1.09 0 0 0 1.021-.727l.673.295a.538.538 0 0 0-.058.24 2.516 2.516 0 0 0 1.393 2.305c.32.16.674.242 1.032.24a2.68 2.68 0 0 0 1.753-.68.538.538 0 0 0 .153-.229l1.327.586c.104.508.55.873 1.07.873h1.454a1.09 1.09 0 0 0 1.09-1.091V1.229a1.09 1.09 0 0 0-1.09-1.084zM2.444 7.782H1.353V4.145h1.09v3.637zm7.272 2L3.535 7.025V4.913l6.181-2.506v7.375zm-3.756.24a1.396 1.396 0 0 1-.775-1.113l2.182.956c-.407.3-.944.36-1.407.157zm6.302.669h-1.455V1.236h1.455v9.455z"/>
    </g>
</svg>
