<svg xmlns="http://www.w3.org/2000/svg" xmlns:xlink="http://www.w3.org/1999/xlink" width="40" height="40" viewBox="0 0 40 40">
    <defs>
        <linearGradient id="a" x1="98.558%" x2="1.745%" y1="50%" y2="50%">
            <stop offset="0%" stop-color="#62BA67"/>
            <stop offset="100%" stop-color="#006706"/>
        </linearGradient>
        <circle id="b" cx="9" cy="9" r="9"/>
    </defs>
    <g fill="none" fill-rule="evenodd">
        <path fill="url(#a)" d="M40 20c0 11.045-8.955 20-20 20S0 31.045 0 20 8.955 0 20 0s20 8.955 20 20z" opacity=".2"/>
        <circle cx="20" cy="20" r="15" fill="url(#a)" opacity=".7"/>
        <use stroke="#FFF" stroke-width=".823" transform="translate(11 11)" xlink:href="#b"/>
        <path fill="#FFF" fill-rule="nonzero" d="M22.56 13.38l-.439 1.208a5.758 5.758 0 0 0-3.821-.048 5.786 5.786 0 1 0 4.783 10.468l.653 1.108A7.071 7.071 0 1 1 22.56 13.38zm-5.45 5.544a3.214 3.214 0 0 0 4.738 3.816l.686 1.088a4.5 4.5 0 1 1-.864-8.034l.423.154v2.79h-1.286V16.88a3.215 3.215 0 0 0-3.697 2.044z"/>
    </g>
</svg>
