<svg xmlns="http://www.w3.org/2000/svg" width="16" height="16" viewBox="0 0 16 16">
    <g fill="#62BA67" fill-rule="nonzero">
        <path d="M8 15.4A7.4 7.4 0 1 1 8 .6a7.4 7.4 0 0 1 0 14.8zm0-.8A6.6 6.6 0 1 0 8 1.4a6.6 6.6 0 0 0 0 13.2z"/>
        <path d="M9.992 2.851l-.342.94a4.478 4.478 0 0 0-2.972-.037 4.5 4.5 0 1 0 3.72 8.141l.508.862a5.5 5.5 0 1 1-.914-9.905zm-4.24 4.312a2.5 2.5 0 0 0 3.685 2.968l.534.846a3.5 3.5 0 1 1-.672-6.248l.329.12v2.169h-1V5.574a2.5 2.5 0 0 0-2.876 1.589z"/>
    </g>
</svg>
