<svg xmlns="http://www.w3.org/2000/svg" width="12" height="11" viewBox="0 0 12 11">
    <g fill="#637576" fill-rule="evenodd">
        <path d="M2.689 6a.512.512 0 0 0 .47-.344.596.596 0 0 0-.11-.608L1.71 3.583h7.78c.283 0 .511-.25.511-.558 0-.308-.228-.558-.51-.558H1.597l1.435-1.45a.582.582 0 0 0 .213-.553.542.542 0 0 0-.369-.445.484.484 0 0 0-.524.18L.142 2.43a.934.934 0 0 0 0 .99l2.21 2.416c.09.099.21.157.337.164zM11.99 8.089a.582.582 0 0 0-.132-.494L9.706 5.183a.494.494 0 0 0-.502-.168.536.536 0 0 0-.379.393.586.586 0 0 0 .137.547l1.312 1.484H2.517c-.286 0-.517.25-.517.557 0 .307.231.557.517.557h7.822L8.89 9.985a.576.576 0 0 0-.216.552c.034.214.18.387.374.444a.495.495 0 0 0 .531-.18l2.24-2.226a.569.569 0 0 0 .171-.486z"/>
    </g>
</svg>
