<svg xmlns="http://www.w3.org/2000/svg" width="40" height="40" viewBox="0 0 40 40">
    <defs>
        <linearGradient id="a" x1="100%" x2="1.745%" y1="50%" y2="50%">
            <stop offset="0%" stop-color="#EC6576"/>
            <stop offset="100%" stop-color="#8005A7"/>
        </linearGradient>
    </defs>
    <g fill="none" fill-rule="evenodd">
        <g fill="url(#a)">
            <path d="M40 20c0 11.045-8.955 20-20 20S0 31.045 0 20 8.955 0 20 0s20 8.955 20 20z" opacity=".2"/>
            <circle cx="20" cy="20" r="15" opacity=".6"/>
        </g>
        <path fill="#FFF" d="M21.417 19.976h-2.825c-1.44 0-2.61-1.147-2.61-2.558 0-1.41 1.17-2.558 2.61-2.558h4.985c.27 0 .49-.215.49-.48 0-.263-.22-.479-.49-.479h-3.086V11.48c0-.264-.22-.48-.489-.48s-.49.216-.49.48V13.9h-.925C16.61 13.901 15 15.48 15 17.418s1.61 3.517 3.587 3.517h2.826c1.439 0 2.609 1.147 2.609 2.558 0 1.41-1.17 2.557-2.61 2.557h-5.075c-.269 0-.49.216-.49.48s.221.48.49.48h3.176v2.453c0 .264.22.48.489.48.27 0 .49-.216.49-.48V27.01h.965C23.414 26.985 25 25.42 25 23.493c.004-1.939-1.606-3.517-3.583-3.517z"/>
    </g>
</svg>
