<svg xmlns="http://www.w3.org/2000/svg" width="15" height="16" viewBox="0 0 15 16">
    <g fill="#637576" fill-rule="evenodd">
        <path stroke="#637576" stroke-width=".2" d="M7.562 14.124H1.875V1.874h5.687a.438.438 0 0 0 0-.874H1.437A.438.438 0 0 0 1 1.437v13.124c0 .242.196.438.437.438h6.125a.438.438 0 0 0 0-.875z"/>
        <path d="M14.448 7.797l-2.5-2.6a.6.6 0 1 0-.864.832l1.524 1.6H4.6a.6.6 0 1 0 0 1.2h8.084L11 10.373a.6.6 0 1 0 .8.88l2.6-2.4a.588.588 0 0 0 .2-.524.596.596 0 0 0-.152-.532z"/>
    </g>
</svg>
