<svg xmlns="http://www.w3.org/2000/svg" width="14" height="14" viewBox="0 0 14 14">
    <path fill="#637576" fill-rule="evenodd" d="M7.068.202a6.844 6.844 0 1 0 0 13.69 6.844 6.844 0 0 0 0-13.69zm-5.91 6.845a5.911 5.911 0 1 1 10.555 3.655 5.986 5.986 0 0 0-2.952-2.299c.52-.557.806-1.294.796-2.056 0-1.556-1.117-2.8-2.489-2.8-1.372 0-2.488 1.244-2.488 2.8a2.95 2.95 0 0 0 .858 2.109 5.538 5.538 0 0 0-2.893 2.39 5.883 5.883 0 0 1-1.388-3.8zm6.066 1.089c-.17 0-.34.01-.51.028a1.826 1.826 0 0 1-1.201-1.817c0-1.03.697-1.867 1.555-1.867.86 0 1.556.837 1.556 1.867a1.845 1.845 0 0 1-1.145 1.798c-.084-.003-.168-.01-.255-.01zm-3.988 3.422a4.552 4.552 0 0 1 3.422-2.433c.303.059.615.052.914-.022a4.782 4.782 0 0 1 3.479 2.309 5.89 5.89 0 0 1-7.825.146h.01z"/>
</svg>
