<svg xmlns="http://www.w3.org/2000/svg" width="14" height="14" viewBox="0 0 14 14">
    <g fill="#637576" fill-rule="evenodd">
        <path d="M7.068 4.48a2.489 2.489 0 1 0 0 4.978 2.489 2.489 0 0 0 0-4.978zm0 4.044a1.556 1.556 0 1 1 0-3.11 1.556 1.556 0 0 1 0 3.11z"/>
        <path d="M12.98 5.102h-.965a4.103 4.103 0 0 0-.13-.31l.68-.682a.933.933 0 0 0 0-1.32l-1.318-1.318a.933.933 0 0 0-1.32 0l-.68.68a6.99 6.99 0 0 0-.312-.13v-.964a.933.933 0 0 0-.933-.934H6.135a.933.933 0 0 0-.933.934v.964c-.106.04-.21.083-.311.13l-.682-.68a.933.933 0 0 0-1.319 0L1.571 2.79a.933.933 0 0 0 0 1.319l.675.681a6.99 6.99 0 0 0-.13.311H1.15a.933.933 0 0 0-.933.934v1.866c0 .516.418.934.933.934h.965c.039.105.083.209.13.31l-.681.682a.933.933 0 0 0 0 1.32l1.319 1.318a.933.933 0 0 0 1.32 0l.68-.681c.102.046.206.09.312.13v.965c0 .515.417.933.933.933h1.867a.933.933 0 0 0 .933-.933v-.964c.106-.04.21-.083.311-.131l.681.681a.933.933 0 0 0 1.32 0l1.319-1.319a.933.933 0 0 0 0-1.319l-.67-.681a6.99 6.99 0 0 0 .131-.311h.965a.933.933 0 0 0 .933-.934V6.036a.933.933 0 0 0-.94-.934zm0 2.8H11.32c-.11.502-.31.98-.588 1.413l1.173 1.173-1.319 1.319-1.185-1.173c-.432.278-.91.477-1.413.588v1.658H6.123v-1.658c-.502-.11-.98-.31-1.413-.588l-1.173 1.173-1.319-1.32 1.173-1.172a4.324 4.324 0 0 1-.588-1.413H1.157V6.036h1.659c.11-.502.31-.98.588-1.413L2.23 3.45 3.55 2.131l1.173 1.173c.432-.278.91-.478 1.412-.588V1.058h1.867v1.658c.502.11.98.31 1.412.588l1.173-1.173 1.32 1.32-1.174 1.172c.279.432.478.91.588 1.413h1.659v1.866z"/>
    </g>
</svg>
