<svg xmlns="http://www.w3.org/2000/svg" width="8" height="15" viewBox="0 0 8 15">
    <path fill="#637576" fill-rule="evenodd" d="M6.35 7.621a3.214 3.214 0 0 0-2.164-.86V2.496c.465.079.896.297 1.235.625.358.358.358.643.358 1.308a.536.536 0 1 0 1.071 0c0-.74 0-1.375-.686-2.061a3.4 3.4 0 0 0-1.993-.95v-.56a.536.536 0 1 0-1.071 0v.574a2.729 2.729 0 0 0-1.679.714C.107 3.461.05 5.718 1.293 6.946a3.25 3.25 0 0 0 1.807.815v4.768a2.5 2.5 0 0 1-1.05-.625c-.643-.643-.979-1.104-.918-1.711a.536.536 0 0 0-1.064-.107c-.114 1.132.543 1.893 1.225 2.575a3.525 3.525 0 0 0 1.807.968v.8a.536.536 0 1 0 1.071 0v-.743a3.529 3.529 0 0 0 2.165-1.022 3.571 3.571 0 0 0 .014-5.043zM2.064 6.193c-.81-.81-.746-2.407.129-3.286a1.6 1.6 0 0 1 .921-.4v4.168a2.086 2.086 0 0 1-1.05-.482zm3.529 5.714a2.479 2.479 0 0 1-1.407.714V7.85a2.079 2.079 0 0 1 1.407.543 2.5 2.5 0 0 1 0 3.514z"/>
</svg>
