<svg xmlns="http://www.w3.org/2000/svg" width="15" height="13" viewBox="0 0 15 13">
    <g fill="#637576" fill-rule="nonzero">
        <path d="M14.6 9.616l.017.884v1.216a.51.51 0 0 1-.51.51H6.54a.51.51 0 0 1-.51-.51v-.656h-4.72a.51.51 0 0 1-.51-.508V8.924a3.095 3.095 0 0 1 3.088-3.088h2.398c.53 0 1.051.137 1.513.398.356.202.669.472.92.795.135-.018.272-.027.408-.027h2.4c.17 0 .34.014.508.042 1.091-.05 2.56 1.119 2.564 2.572zm-8.537.196l.001-.02A3.103 3.103 0 0 1 7.66 7.38a2.047 2.047 0 0 0-1.372-.524H3.889a2.074 2.074 0 0 0-2.068 2.068v1.116h4.242v-.228zm7.527.205c0-.036 0-.036.007-.02a.516.516 0 0 1-.018-.168 2.076 2.076 0 0 0-2.05-1.805L9.224 8h-.173c-.895.004-1.672.638-1.95 1.482l-.015.048-.02.072-.007.003v1.604h6.53v-1.19z"/>
        <path d="M7.47 3.33a2.384 2.384 0 1 1-4.77-.005 2.384 2.384 0 0 1 4.77.004zm-1.419.96a1.36 1.36 0 0 0 0-1.93 1.364 1.364 0 1 0 0 1.93zM12.017 6.17a2.382 2.382 0 1 1-3.375-3.363 2.382 2.382 0 0 1 3.375 3.363zm-.325-1.677a1.364 1.364 0 1 0-2.728 0 1.364 1.364 0 0 0 2.728 0z"/>
    </g>
</svg>
