<svg xmlns="http://www.w3.org/2000/svg" width="35" height="32" viewBox="0 0 35 32">
    <defs>
        <linearGradient id="a" x1="92.276%" x2="21.688%" y1="100%" y2="0%">
            <stop offset="0%" stop-color="#EA676F"/>
            <stop offset="100%" stop-color="#F03E5A"/>
        </linearGradient>
        <linearGradient id="b" x1="98.135%" x2="0%" y1="9.272%" y2="100%">
            <stop offset="0%" stop-color="#F5515F"/>
            <stop offset="100%" stop-color="#CF3D53"/>
        </linearGradient>
    </defs>
    <path fill="url(#a)" fill-rule="nonzero" stroke="url(#b)" d="M31.848 31.5c1.464 0 2.652-1.17 2.652-2.603V7.367c0-1.433-1.188-2.603-2.651-2.603h-3.823l-.098-.372L26.91.548a.064.064 0 0 0-.032-.039.081.081 0 0 0-.061-.006L13.31 4.716a.045.045 0 0 0-.006.002l-.209.046H3.151C1.688 4.764.5 5.934.5 7.367v21.53C.5 30.33 1.688 31.5 3.151 31.5h28.697zM3.151 4.89h28.697c1.383 0 2.51 1.109 2.51 2.477v7.18H23.215c-1.114 0-2.018.891-2.018 1.98v3.21c0 1.089.904 1.979 2.018 1.979h11.141v7.18c0 1.37-1.126 2.479-2.509 2.479H3.151c-1.382 0-2.508-1.11-2.508-2.478V7.367C.643 6 1.769 4.89 3.15 4.89zm20.065 9.783h11.141v6.918H23.216a1.866 1.866 0 0 1-1.876-1.854v-3.21c0-1.024.843-1.854 1.876-1.854zm4.664-9.91H13.583L26.79.646l1.09 4.119zm-2.84 14.869c.845 0 1.53-.675 1.53-1.5s-.685-1.5-1.53-1.5c-.846 0-1.532.675-1.532 1.5s.686 1.5 1.531 1.5zm0-2.875c.764 0 1.388.615 1.388 1.375s-.624 1.375-1.389 1.375a1.383 1.383 0 0 1-1.388-1.375c0-.76.624-1.375 1.388-1.375z"/>
</svg>
